<?xml version="1.0" encoding="UTF-8"?>
<svg width="500px" height="500px" viewBox="0 0 500 500" version="1.1" xmlns="http://www.w3.org/2000/svg" xmlns:xlink="http://www.w3.org/1999/xlink">
  <style type="text/css">
    @media (prefers-color-scheme: light) { 
      #mb { fill: color(display-p3 0.9 0.09 0.2); }
    }
    
    @media (prefers-color-scheme: dark) { 
      #mb { fill: color(display-p3 0.9 0.3 0.4); } 
    }
  </style>
    <g id="icon" stroke="none" stroke-width="1" fill="none" fill-rule="evenodd">
        <g id="mb" transform="translate(0, 100)" fill="#E61733" fill-rule="nonzero">
            <path d="M20.8328515,75.4912281 C23.0157768,74.858443 25.2005395,74.3511239 27.3871398,73.9692708 C29.57374,73.5874178 31.9541944,73.2219298 34.5285027,72.872807 C37.1028111,72.5236842 39.9784661,72.2909357 43.1554676,72.1745614 C46.3324692,72.0581871 50.0046714,72 54.1720742,72 C61.0626212,72 67.3137255,73.0128198 72.925387,75.0384594 C78.5370485,77.064099 83.1564712,80.2352979 86.7836552,84.5520559 C90.4108391,88.868814 92.7628125,94.5984284 93.8395753,101.740899 C94.9163381,108.88337 94.2824078,117.536888 91.9377843,127.701453 C88.255476,145.488533 84.699035,161.933671 81.2684613,177.03687 C77.8378876,192.140068 75.1597617,206.936874 73.2340835,221.427289 C71.3084053,235.917704 70.847198,251.278198 71.8504616,267.508772 C70.0681068,267.806981 68.0928167,268.130647 65.9245912,268.47977 C63.7563657,268.828893 61.3529429,269.103463 58.7143228,269.303481 C56.0757027,269.5035 53.1430858,269.661696 49.9164723,269.77807 C46.6898589,269.894444 43.1600613,269.952632 39.3270797,269.952632 C32.2344099,269.952632 26.042105,268.957086 20.7501649,266.965995 C15.4582248,264.974904 11.1585234,262.045546 7.85106086,258.177919 C4.54359828,254.310293 2.2844176,249.528947 1.0735188,243.833882 C-0.137379998,238.138816 -0.323884138,231.589126 0.514006381,224.184814 C1.51727003,213.103801 3.14895156,202.023698 5.40905099,190.944504 C7.66915041,179.86531 10.0541984,168.661559 12.564195,157.333251 C15.0741916,146.004943 17.334291,134.602083 19.3444933,123.124671 C21.1856475,113.018293 22.1971798,104.223853 22.3790902,96.7413514 C22.5610007,89.2588496 22.0455877,82.1754751 20.8328515,75.4912281 Z M151.224051,72 C157.107659,72 162.545679,73.886536 167.53811,77.659608 C172.530541,81.43268 176.800843,86.4613213 180.349015,92.7455318 C183.897187,99.0297423 186.320823,105.938555 187.61992,113.471971 C188.919018,121.005387 188.897887,128.53062 187.556527,136.04767 C184.546736,148.296062 181.744581,160.028043 179.15006,171.243613 C176.555539,182.459183 174.253178,193.379272 172.242976,204.003879 C170.232773,214.628486 168.600173,225.148538 167.345175,235.564035 C166.090176,245.979532 165.295467,256.627778 164.961046,267.508772 C162.579672,267.74152 159.885009,268.032456 156.877056,268.381579 C153.869102,268.730702 150.557965,268.96345 146.943643,269.079825 C143.329322,269.196199 139.186725,269.254386 134.515853,269.254386 C125.332131,269.254386 117.923415,267.776069 112.289704,264.819435 C106.655993,261.862802 102.796368,257.402394 100.710829,251.438213 C98.6252899,245.474031 98.2513629,238.004258 99.5890478,229.028893 C100.426938,223.773867 101.607519,217.912422 103.130789,211.444559 C104.654059,204.976695 106.438252,198.143343 108.483366,190.944504 C110.52848,183.745664 112.691193,176.371354 114.971505,168.821573 C117.251817,161.271793 119.53121,153.785654 121.809684,146.363158 C121.339289,146.130409 120.525286,145.955848 119.367674,145.839474 C118.210062,145.723099 116.985382,145.606725 115.693634,145.490351 C114.401886,145.373977 113.035721,145.315789 111.595137,145.315789 C108.838918,145.315789 105.739091,145.739465 102.295655,146.586815 C98.8522186,147.434165 95.5171938,148.864296 92.2905803,150.877207 C89.0639669,152.890118 86.1111378,155.558543 83.4320931,158.882484 L89.3469387,117.685992 L96.5682319,119.180674 C102.771562,107.910554 108.685489,98.8169956 114.310012,91.9 C119.934536,84.9830044 125.745564,79.9370888 131.743096,76.7622533 C137.740629,73.5874178 144.23428,72 151.224051,72 Z M248.683948,72 C254.530807,72 260.144306,74.0938277 265.524445,78.281483 C270.904584,82.4691383 275.671924,87.7705318 279.826464,94.1856634 C283.981005,100.600795 287.1773,107.417781 289.41535,114.636623 C291.653399,121.855464 292.438003,128.577897 291.769161,134.80392 C290.93127,140.20805 289.566023,145.776741 287.673419,151.509992 C285.780816,157.243243 283.644746,162.928308 281.265211,168.565186 C278.885675,174.202065 276.472146,179.898949 274.024624,185.655839 C273.289632,187.619655 272.619871,189.500736 272.01534,191.299082 C271.41081,193.097428 270.788823,194.945779 270.14938,196.844134 C271.02402,197.076882 272.175201,197.334179 273.602922,197.616022 C275.030644,197.897866 276.464796,198.038788 277.90538,198.038788 C279.584836,198.038788 281.138425,197.682392 282.566146,196.9696 C283.993867,196.256807 285.260809,195.500375 286.366972,194.700302 L288.483748,194.700302 C287.980278,199.893503 287.335323,205.106707 286.548882,210.339912 C285.762441,215.573118 284.882289,220.066255 283.908425,223.819326 C281.530726,233.427476 278.906806,241.240008 276.036664,247.256922 C273.166521,253.273835 269.984007,258.095185 266.489122,261.72097 C263.126535,264.97945 258.892064,267.340575 253.785709,268.804345 C248.679354,270.268115 243.671305,271 238.76156,271 C229.147869,271 220.972924,268.782525 214.236725,264.347574 C207.500527,259.912623 202.594457,253.797519 199.518517,246.002262 C196.442577,238.207004 195.657973,229.287098 197.164706,219.242544 C197.833549,214.416648 198.788119,209.434375 200.028417,204.295724 C201.268716,199.157072 202.810361,193.720212 204.653353,187.985143 C206.496344,182.250073 208.582802,176.090419 210.912726,169.506181 C213.242649,162.921944 215.916181,155.77129 218.933322,148.054221 C216.651173,147.094134 214.302875,146.397707 211.888427,145.96494 C209.473979,145.532173 206.940095,145.315789 204.286776,145.315789 C201.129986,145.315789 198.167051,145.697643 195.39797,146.461349 C192.628889,147.225055 189.993025,148.445166 187.490378,150.121683 C184.987731,151.7982 182.613708,153.912939 180.368309,156.465899 L185.930358,117.440515 L192.076726,118.929742 C198.618152,108.623346 204.9106,99.9952851 210.954069,93.0455592 C216.997538,86.0958333 223.117262,80.8508087 229.313242,77.3104852 C235.509222,73.7701617 241.966124,72 248.683948,72 Z" id="Shape"></path>
            <path d="M375.44414,228.238312 L364.880124,206.241558 C367.817614,207.414719 370.636509,208.235931 373.33681,208.705195 C376.037111,209.174459 379.056704,209.409091 382.39559,209.409091 C386.862034,209.409091 391.22083,208.361496 395.47198,206.266305 C399.72313,204.171114 403.623057,200.323515 407.171764,194.723509 C410.72047,189.123502 413.49284,181.143263 415.488873,170.782792 L415.986969,168.319156 C417.315226,162.691653 418.236612,157.834037 418.751129,153.746307 C419.265646,149.658577 419.539325,145.554349 419.572166,141.433624 C418.638008,140.96436 417.535993,140.571168 416.266122,140.254048 C414.996251,139.936928 413.627855,139.778369 412.160935,139.778369 C408.792857,139.778369 405.240501,140.818632 401.503869,142.899158 C397.767236,144.979684 393.922956,148.2572 389.971029,152.731707 C386.019102,157.206213 381.893845,163.080262 377.595258,170.353856 L393.298968,109.466843 L401.728285,110.720657 C408.325778,101.705655 414.893165,94.1387716 421.430448,88.0200081 C427.96773,81.9012446 434.56431,77.3158381 441.220187,74.2637886 C447.876064,71.211739 454.43889,69.6857143 460.908666,69.6857143 C466.743505,69.6857143 472.281859,71.9202178 477.523727,76.3892248 C482.765595,80.8582319 487.315967,86.995326 491.174843,94.8005073 C495.033719,102.605689 497.668337,111.602361 499.078697,121.790524 C500.489057,131.978686 500.280149,142.791924 498.451972,154.230235 L497.45578,160.064874 C492.799585,187.384842 485.071798,209.149713 474.272419,225.359487 C463.473039,241.569261 450.467806,253.228456 435.256719,260.337074 C420.045631,267.445691 403.228047,271 384.803967,271 C376.454928,271 368.783701,270.16229 361.790287,268.486871 C354.796872,266.811452 348.42106,264.331318 342.66285,261.046469 C336.904641,257.761621 331.690141,253.855364 327.01935,249.327699 C318.7141,240.818621 312.569091,230.348167 308.584322,217.916335 C304.599554,205.484504 303.93725,191.511066 306.597412,175.996023 C308.089875,166.742722 310.083172,157.785461 312.577301,149.124239 C315.07143,140.463017 317.689628,131.365527 320.431893,121.831767 C323.174158,112.298008 325.874459,101.723069 328.532796,90.1069501 C331.191133,78.4908313 333.518318,65.2203734 335.514351,50.2955763 C336.842607,40.8113095 337.32337,32.1629194 336.95664,24.3504058 C336.58991,16.5378923 335.28811,9.67857143 333.051239,3.77244318 C335.350143,3.13453734 337.799572,2.58095238 340.399524,2.11168831 C342.999476,1.64242424 345.675146,1.23181818 348.426533,0.87987013 C351.177921,0.527922078 353.929309,0.293290043 356.680697,0.175974026 C359.432084,0.0586580087 362.039335,0 364.502447,0 C377.949216,0 388.386427,2.39489651 395.814079,7.18468953 C403.241731,11.9744825 407.811261,19.8291565 409.522668,30.7487114 C411.234075,41.6682664 410.177673,56.3410173 406.353463,74.7669643 C404.861,84.2035714 403.033735,93.7190003 400.87167,103.313251 C398.709604,112.907501 396.423471,122.389935 394.01327,131.760552 C391.603069,141.131169 389.19378,150.264404 386.785404,159.160258 C384.377027,168.056111 382.25875,176.615598 380.430574,184.838718 C378.602397,193.061837 377.231264,200.816609 376.317176,208.103034 C375.403088,215.389458 375.112075,222.101218 375.44414,228.238312 Z" id="Path"></path>
        </g>
    </g>
</svg>