<?xml version="1.0" encoding="UTF-8"?>
<svg width="16px" height="16px" viewBox="0 0 16 16" version="1.1" xmlns="http://www.w3.org/2000/svg" xmlns:xlink="http://www.w3.org/1999/xlink">
    <!-- Generator: Sketch 57.1 (83088) - https://sketch.com -->
    <title>Artboard</title>
    <desc>Created with Sketch.</desc>
    <g id="Artboard" stroke="none" stroke-width="1" fill="none" fill-rule="evenodd">
        <path d="M7.95508587,12 L7.95508587,6.60269865 L5.94583884,12 L5.04227213,12 L3.04491413,6.60269865 L3.04491413,12 L1,12 L1,4 L3.84147952,4 L5.49405548,8.53373313 L7.15852048,4 L10,4 L10,12 L7.95508587,12 Z M8,12 L8,4 L12.5153584,4 C14.0921502,4 14.8447099,5.03148426 14.8447099,6.03898051 C14.8447099,7.03448276 14.2354949,7.70614693 13.4829352,7.87406297 C14.331058,8.005997 15,8.82158921 15,9.82908546 C15,10.9925037 14.2235495,12 12.6587031,12 L8,12 Z M10,7 L12.2168142,7 C12.6814159,7 13,6.7826087 13,6.49565217 C13,6.20869565 12.6814159,6 12.2168142,6 L10,6 L10,7 Z M10,10 L12.1715481,10 C12.6861925,10 13,9.7983871 13,9.50806452 C13,9.23387097 12.6987448,9 12.1715481,9 L10,9 L10,10 Z" id="MB" fill="#000000" fill-rule="nonzero"></path>
    </g>
</svg>